<svg xmlns="http://www.w3.org/2000/svg" width="24" height="24" viewBox="0 0 300.005 300.005">
  <g fill="#98C693">
    <path d="M150,0C67.159,0,0.002,67.162,0.002,150S67.159,300.005,150,300.005S300.003,232.841,300.003,150S232.841,0,150,0z M231.341,153.208l-11.495,67.961c0,6.634-5.379,12.014-12.016,12.014H90.875c-6.634,0-12.014-5.379-12.014-12.014 l-11.495-67.961c-4.451-3.582-7.358-9.005-7.358-15.157c0-10.312,8.001-18.736,18.127-19.452l33.087-48.389 c2.425-3.545,7.262-4.458,10.815-2.031c3.548,2.428,4.456,7.267,2.031,10.815l-27.031,39.535h104.64l-27.036-39.535 c-2.428-3.548-1.52-8.388,2.031-10.815c3.545-2.425,8.388-1.512,10.815,2.031l33.09,48.389 c10.12,0.718,18.119,9.143,18.119,19.452C238.697,144.206,235.789,149.627,231.341,153.208z"/>
  </g>
  <g fill="#98C693">
    <path d="M167.5,157.5v-25h-35v25h-25v35h25v25h35v-25h25v-35H167.5z"/>
  </g>
</svg>