<svg xmlns="http://www.w3.org/2000/svg" width="24" height="24" viewBox="0 0 693 693">
  <circle fill="#3880ff" cx="346.5" cy="346.5" r="346.5"/>
  
  <g fill="white">
    <path d="M462.4,234.5l103.1,27.1l26-103.1l-19.8-5.2l-16.9,64.3c-43.2-69.7-120.3-116.1-208.3-116.1 c-135.3,0-245,109.7-245,245s109.7,245,245,245c90.3,0,169.1-48.8,211.6-121.5l-17.7-9.6c-39.1,66.4-111.3,111-193.9,111 c-124.2,0-224.9-100.7-224.9-224.9s100.7-224.9,224.9-224.9c83.3,0,156.1,45.3,194.9,112.7l-73.8-19.6L462.4,234.5z"/>
    <path d="M420.9,409.2c-18.1,17.5-43.7,29.2-69.9,29.2c-43.2,0-79.1-26.5-92.3-64h-30.5v-13.8h26.7 c-1.1-5.9-1.6-11.9-1.6-18.1c0-5.9,0.5-11.6,1.6-17.3h-26.7v-13.8h30.2c13.2-37.3,49.7-63.7,93.4-63.7c25.9,0,51.3,10.5,68.9,27.5 l-12.4,16.5c-14.9-14.9-35.1-23.8-56.2-23.8c-31.3,0-58.1,17.6-70.2,43.5H355v13.8h-77.8c-1.4,5.4-2.2,11.3-2.2,17.3 c0,6.2,0.8,12.4,2.2,18.1H355v13.8h-72.6c12.4,25.4,38.9,42.7,69.7,42.7c20.5,0,40.8-8.6,56.2-22.7L420.9,409.2z"/>
  </g>
</svg>