<svg xmlns="http://www.w3.org/2000/svg" width="24" height="24" viewBox="0 0 1024 1024">
  <path d="M512 0C228.693333 0 0 228.693333 0 512s228.693333 512 512 512 512-228.693333 512-512S795.306667 0 512 0z" fill="#FA8D14"/>
  
  <path d="M815.787 375.467c-23.894 30.72-47.787 47.787-71.68 75.093-58.027 61.44-78.507 61.44-88.747 61.44h-3.413c-17.067 0-30.72-3.413-40.96-13.653l-20.48 30.72 180.907 187.733c6.827 10.24 13.653 23.893 10.24 37.547 0 13.653-6.827 23.893-13.653 30.72-10.24 6.827-20.48 10.24-30.72 10.24-10.24 0-20.48-3.413-30.72-13.653-6.827-6.827-105.813-122.88-167.253-191.147l-177.494 191.147c-10.24 10.24-20.48 13.653-34.133 13.653s-20.48 0-34.133-10.24c-10.24-6.827-13.653-17.067-13.654-30.72-3.413-13.653 3.413-30.72 10.24-40.96 10.24-10.24 153.6-150.187 187.733-180.907l-13.653-13.653c-10.24 3.413-75.093-3.413-92.16-20.48-13.653-17.067-98.986-143.36-98.986-201.387 0-13.653 6.827-37.546 30.72-37.546 13.653 0 30.72 10.24 54.613 34.133 13.653 13.653 150.187 153.6 180.907 187.733l17.066-20.48c-10.24-10.24-17.066-20.48-23.893-34.133-3.413-13.653 0-30.72 6.827-40.96l3.413-6.827c37.547-47.786 81.92-95.573 129.707-133.12 6.826-6.827 13.653-6.827 23.893-6.827s13.653 6.827 17.067 13.654c3.413 6.826 3.413 13.653 0 20.48-6.827 6.826-95.573 102.4-105.813 112.64-3.414 3.413-10.24 20.48-6.827 20.48h3.413c6.827 0 10.24-3.413 13.653-6.827 6.827-6.826 95.574-98.986 102.4-105.813 3.413-3.413 10.24-6.827 17.067-6.827 10.24 0 17.066 6.827 20.48 17.067 3.413 6.826 3.413 17.067-3.413 20.48-6.827 10.24-98.987 109.227-102.4 116.053-3.413 3.414-6.827 6.827-3.414 13.654l3.414 3.413c6.826-3.413 10.24-3.413 13.653-6.826 3.413-6.827 95.573-98.987 105.813-105.813 3.413-3.413 10.24-6.827 13.653-6.827 13.654 0 23.894 6.827 30.72 17.067 3.414 6.826 3.414 17.066 0 20.48z" fill="#FFFFFF"/>
</svg>