<svg xmlns="http://www.w3.org/2000/svg" width="24" height="24" viewBox="0 0 256 256">
  <path fill="#626A6E" d="M0,128C0,57.3,57.3,0,128,0s128,57.3,128,128s-57.3,128-128,128S0,198.7,0,128z"/>

  <g transform="translate(50.804 53.886)" fill="white">
    <path d="M126.5,144.5c-15,0-22.7-3.7-23.3-5.2v-4c5.5,2.8,14.4,4,23.3,4c8.6,0,17.8-1.2,23.3-4v4 C149.3,140.5,141.6,144.5,126.5,144.5z M126.5,72c15,0,22.7,3.7,23.3,5.2c-0.6,1.5-8.3,5.2-23.3,5.2s-22.7-3.7-23.3-5.2l0,0 C103.5,76,111.5,72,126.5,72z M149.6,87.7c-0.3,1.5-8,5.2-23.3,5.2s-22.7-3.7-23.3-5.2v-4c5.5,2.8,14.4,4,23.3,4 c8.6,0,17.8-1.2,23.3-4V87.7L149.6,87.7z M149.6,97.8c-0.3,1.5-8,5.2-23.3,5.2s-22.7-3.7-23.3-5.2v-4c5.5,2.8,14.4,4,23.3,4 c8.6,0,17.8-1.2,23.3-4V97.8L149.6,97.8z M149.6,108.3c-0.3,1.5-8,5.2-23.3,5.2s-22.7-3.7-23.3-5.2v-4c5.5,2.8,14.4,4,23.3,4 c8.6,0,17.8-1.2,23.3-4L149.6,108.3L149.6,108.3z M149.6,118.7c-0.3,1.5-8,5.2-23.3,5.2s-22.7-3.7-23.3-5.2v-4 c5.5,2.8,14.4,4,23.3,4c8.6,0,17.8-1.2,23.3-4V118.7L149.6,118.7z M149.6,128.9c-0.3,1.5-8,5.2-23.3,5.2s-22.7-3.7-23.3-5.2v-4 c5.5,2.8,14.4,4,23.3,4c8.6,0,17.8-1.2,23.3-4V128.9L149.6,128.9z M126.5,67.1c-13.8,0-28.3,3.4-28.3,10.4v62 c0,7.1,14.7,10.4,28.3,10.4s28.3-3.4,28.3-10.4V77.3C154.8,70.2,140.1,67.1,126.5,67.1z"/>
    <path d="M131.4,61.3c1.2,0,2.1-0.9,2.1-2c0,0,0-0.1,0-0.1l0,0v-7.7c0-1.2-0.9-2.1-2-2.2c0,0-0.1,0-0.1,0H2.1 c-0.9-0.2-1.9,0.3-2.1,1.2C0,50.8,0,51,0,51.2l0,0v62.3c0,1.2,0.9,2.1,2,2.2c0,0,0.1,0,0.1,0H90c1.2,0,2.2-1,2.2-2.2 s-1-2.2-2.2-2.2H4.3v-58h125v5.5C129.3,60.1,130.2,61.2,131.4,61.3z"/>
    <path d="M11.4,15.8c-0.6,0.4-1,0.9-1.2,1.5L4.9,40.7c-0.2,1.3,0.6,2.5,1.8,2.8c1.2,0.2,2.3-0.4,2.8-1.5l0,0l4.6-21.2 l101.4,22.7h0.6c1.2,0,2.1-0.9,2.2-2c0,0,0-0.1,0-0.1c0-1.1-0.8-2-1.8-2.2L12.9,15.5C12.4,15.5,11.8,15.6,11.4,15.8L11.4,15.8z"/>
    <path d="M37.8,13.4l4.3-8.6L102.6,30c0.9,0.5,2,0.2,2.6-0.7c0.1-0.2,0.2-0.4,0.2-0.6c0.5-0.9,0.2-2-0.7-2.6 c-0.2-0.1-0.4-0.2-0.6-0.2L41.8,0.2c-1.2-0.3-2.5,0-2.8,0.9l-5.2,10.4c-0.6,1-0.3,2.3,0.7,2.9c0.1,0.1,0.2,0.1,0.3,0.1 C35.6,15.2,37.2,14.6,37.8,13.4L37.8,13.4z"/>
    <path d="M64.2,63.8c10.2-0.2,18.6,7.9,18.7,18.1s-7.9,18.6-18.1,18.7c-0.2,0-0.4,0-0.6,0 c-10.2,0.2-18.6-7.9-18.7-18.1s7.9-18.6,18.1-18.7C63.8,63.7,64,63.7,64.2,63.8z M64.2,104.9c12.6,0,22.7-10.2,22.7-22.7 S76.7,59.5,64.2,59.5c-12.5,0-22.7,10.2-22.7,22.7l0,0C41.2,94.8,51.6,104.9,64.2,104.9z"/>
    <path d="M70.9,92c0,0.3,0,0.6-0.3,0.6c-1.1,0.4-2.2,0.6-3.4,0.6c-4.7,0.2-9-2.9-10.4-7.4h-1.5 c-0.3,0-0.6-0.3-0.6-0.6v-1.8c0-0.3,0.3-0.6,0.6-0.6h0.9v-1.5h-0.9c-0.3,0-0.6-0.3-0.6-0.6v-1.8c0-0.3,0.3-0.6,0.6-0.6h1.5 c1.5-4.3,5.6-7.1,10.1-7.1c1,0,2.1,0.1,3.1,0.3c0.2,0,0.3,0.1,0.3,0.3c0,0,0,0,0,0V72l-0.6,2.5c0,0.3-0.3,0.3-0.6,0.3 c-0.7-0.2-1.4-0.3-2.1-0.3c-2.6,0-4.9,1.4-6.1,3.7h7.4c0.2,0,0.3,0.1,0.3,0.3c0,0,0,0,0,0v0.3l-0.3,1.8c0,0.3-0.3,0.3-0.6,0.3 h-7.7v1.5h7.4c0.2,0,0.3,0.1,0.3,0.3c0,0,0,0,0,0v0.3l-0.3,1.8c0,0.3-0.3,0.3-0.6,0.3h-6.1c1,2.5,3.5,4.1,6.1,4 c0.8,0,1.7-0.1,2.5-0.3h0.3l0.3,0.3C69.7,89.2,70.9,92,70.9,92z"/>
  </g>
</svg>