<?xml version="1.0" encoding="UTF-8"?>
<!-- Generator: Adobe Illustrator 23.0.3, SVG Export Plug-In . SVG Version: 6.00 Build 0)  -->
<svg version="1.1" xmlns="http://www.w3.org/2000/svg" xmlns:xlink="http://www.w3.org/1999/xlink" x="0px" y="0px" viewBox="0 0 80 80" style="enable-background:new 0 0 80 80;" xml:space="preserve">
<style type="text/css">
	.st0{fill:#A8AD2C;}
	.st1{display:none;}
	.st2{display:inline;}
	.st3{fill:#F04937;}
	.st4{fill:#CE372F;}
	.st5{fill:#FFFFFF;}
	.st6{fill:#91982C;}
	.st7{display:inline;fill:#FFFFFF;}
</style>
<g id="Circle-Green">
	<g>
		<ellipse transform="matrix(0.2854 -0.9584 0.9584 0.2854 -9.7537 66.918)" class="st0" cx="40" cy="40" rx="40" ry="40"/>
	</g>
</g>
<g id="Red" class="st1">
	<g class="st2">
		<ellipse transform="matrix(0.2854 -0.9584 0.9584 0.2854 -9.7536 66.9179)" class="st3" cx="40" cy="40" rx="40" ry="40"/>
	</g>
	<g class="st2">
		<g>
			<path class="st4" d="M30.81,52.4c0.12,0,0.23-0.1,0.23-0.23V38.44c0-0.12-0.1-0.23-0.23-0.23h-2.96c-0.12,0-0.23,0.1-0.23,0.23     v13.74c0,0.12,0.1,0.23,0.23,0.23H30.81z"/>
			<path class="st4" d="M31.87,36.42c0-0.29-0.23-0.52-0.52-0.52h-4.04c-0.29,0-0.52,0.23-0.52,0.52v0.87     c0,0.29,0.23,0.52,0.52,0.52h4.04c0.29,0,0.52-0.23,0.52-0.52V36.42z"/>
			<path class="st4" d="M26.79,53.34v0.77c0,0.29,0.23,0.52,0.52,0.52h4.04c0.29,0,0.52-0.23,0.52-0.52v-0.77     c0-0.29-0.23-0.52-0.52-0.52h-4.04C27.02,52.82,26.79,53.06,26.79,53.34z"/>
			<path class="st4" d="M43.54,52.4c0.12,0,0.23-0.1,0.23-0.23V38.44c0-0.12-0.1-0.23-0.23-0.23h-2.96c-0.12,0-0.23,0.1-0.23,0.23     v13.74c0,0.12,0.1,0.23,0.23,0.23H43.54z"/>
			<path class="st4" d="M44.6,36.42c0-0.29-0.23-0.52-0.52-0.52h-4.04c-0.29,0-0.52,0.23-0.52,0.52v0.87c0,0.29,0.23,0.52,0.52,0.52     h4.04c0.29,0,0.52-0.23,0.52-0.52V36.42z"/>
			<path class="st4" d="M39.52,53.34v0.77c0,0.29,0.23,0.52,0.52,0.52h4.04c0.29,0,0.52-0.23,0.52-0.52v-0.77     c0-0.29-0.23-0.52-0.52-0.52h-4.04C39.76,52.82,39.52,53.06,39.52,53.34z"/>
			<path class="st4" d="M56.27,52.4c0.12,0,0.23-0.1,0.23-0.23V38.44c0-0.12-0.1-0.23-0.23-0.23h-2.96c-0.12,0-0.23,0.1-0.23,0.23     v13.74c0,0.12,0.1,0.23,0.23,0.23H56.27z"/>
			<path class="st4" d="M57.33,36.42c0-0.29-0.23-0.52-0.52-0.52h-4.04c-0.29,0-0.52,0.23-0.52,0.52v0.87     c0,0.29,0.23,0.52,0.52,0.52h4.04c0.29,0,0.52-0.23,0.52-0.52V36.42z"/>
			<path class="st4" d="M52.25,53.34v0.77c0,0.29,0.23,0.52,0.52,0.52h4.04c0.29,0,0.52-0.23,0.52-0.52v-0.77     c0-0.29-0.23-0.52-0.52-0.52h-4.04C52.49,52.82,52.25,53.06,52.25,53.34z"/>
			<path class="st4" d="M25.39,35.22H42h16.61c0.63,0,0.86-0.73,0.31-1.01l-16.61-9.64c-0.19-0.1-0.43-0.1-0.62,0l-16.61,9.64     C24.54,34.49,24.76,35.22,25.39,35.22z"/>
			<path class="st4" d="M58.91,56.28v-0.19c0-0.42-0.34-0.77-0.77-0.77H25.86c-0.42,0-0.77,0.34-0.77,0.77v0.19     c-0.32,0.12-0.56,0.43-0.56,0.8v1.57c0,0.47,0.38,0.85,0.85,0.85h33.22c0.47,0,0.85-0.38,0.85-0.85v-1.57     C59.46,56.72,59.23,56.41,58.91,56.28z"/>
		</g>
		<g>
			<g>
				<path class="st5" d="M28.81,50.4c0.12,0,0.23-0.1,0.23-0.23V36.44c0-0.12-0.1-0.23-0.23-0.23h-2.96c-0.12,0-0.23,0.1-0.23,0.23      v13.74c0,0.12,0.1,0.23,0.23,0.23H28.81z"/>
				<path class="st5" d="M29.87,34.42c0-0.29-0.23-0.52-0.52-0.52h-4.04c-0.29,0-0.52,0.23-0.52,0.52v0.87      c0,0.29,0.23,0.52,0.52,0.52h4.04c0.29,0,0.52-0.23,0.52-0.52V34.42z"/>
				<path class="st5" d="M24.79,51.34v0.77c0,0.29,0.23,0.52,0.52,0.52h4.04c0.29,0,0.52-0.23,0.52-0.52v-0.77      c0-0.29-0.23-0.52-0.52-0.52h-4.04C25.02,50.82,24.79,51.06,24.79,51.34z"/>
				<path class="st5" d="M41.54,50.4c0.12,0,0.23-0.1,0.23-0.23V36.44c0-0.12-0.1-0.23-0.23-0.23h-2.96c-0.12,0-0.23,0.1-0.23,0.23      v13.74c0,0.12,0.1,0.23,0.23,0.23H41.54z"/>
				<path class="st5" d="M42.6,34.42c0-0.29-0.23-0.52-0.52-0.52h-4.04c-0.29,0-0.52,0.23-0.52,0.52v0.87      c0,0.29,0.23,0.52,0.52,0.52h4.04c0.29,0,0.52-0.23,0.52-0.52V34.42z"/>
				<path class="st5" d="M37.52,51.34v0.77c0,0.29,0.23,0.52,0.52,0.52h4.04c0.29,0,0.52-0.23,0.52-0.52v-0.77      c0-0.29-0.23-0.52-0.52-0.52h-4.04C37.76,50.82,37.52,51.06,37.52,51.34z"/>
				<path class="st5" d="M54.27,50.4c0.12,0,0.23-0.1,0.23-0.23V36.44c0-0.12-0.1-0.23-0.23-0.23h-2.96c-0.12,0-0.23,0.1-0.23,0.23      v13.74c0,0.12,0.1,0.23,0.23,0.23H54.27z"/>
				<path class="st5" d="M55.33,34.42c0-0.29-0.23-0.52-0.52-0.52h-4.04c-0.29,0-0.52,0.23-0.52,0.52v0.87      c0,0.29,0.23,0.52,0.52,0.52h4.04c0.29,0,0.52-0.23,0.52-0.52V34.42z"/>
				<path class="st5" d="M50.25,51.34v0.77c0,0.29,0.23,0.52,0.52,0.52h4.04c0.29,0,0.52-0.23,0.52-0.52v-0.77      c0-0.29-0.23-0.52-0.52-0.52h-4.04C50.49,50.82,50.25,51.06,50.25,51.34z"/>
				<path class="st5" d="M23.39,33.22H40h16.61c0.63,0,0.86-0.73,0.31-1.01l-16.61-9.64c-0.19-0.1-0.43-0.1-0.62,0l-16.61,9.64      C22.54,32.49,22.76,33.22,23.39,33.22z"/>
				<path class="st5" d="M56.91,54.28v-0.19c0-0.42-0.34-0.77-0.77-0.77H23.86c-0.42,0-0.77,0.34-0.77,0.77v0.19      c-0.32,0.12-0.56,0.43-0.56,0.8v1.57c0,0.47,0.38,0.85,0.85,0.85h33.22c0.47,0,0.85-0.38,0.85-0.85v-1.57      C57.46,54.72,57.23,54.41,56.91,54.28z"/>
			</g>
		</g>
	</g>
</g>
<g id="Municipal">
	<g>
		<g>
			<path class="st6" d="M31.37,51.88c0.12,0,0.21-0.1,0.21-0.21V38.61c0-0.12-0.1-0.21-0.21-0.21h-2.81c-0.12,0-0.21,0.1-0.21,0.21     v13.05c0,0.12,0.1,0.21,0.21,0.21H31.37z"/>
			<path class="st6" d="M32.37,36.7c0-0.27-0.22-0.5-0.5-0.5h-3.83c-0.27,0-0.5,0.22-0.5,0.5v0.83c0,0.27,0.22,0.5,0.5,0.5h3.83     c0.27,0,0.5-0.22,0.5-0.5V36.7z"/>
			<path class="st6" d="M27.55,52.78v0.73c0,0.27,0.22,0.5,0.5,0.5h3.83c0.27,0,0.5-0.22,0.5-0.5v-0.73c0-0.27-0.22-0.5-0.5-0.5     h-3.83C27.77,52.28,27.55,52.5,27.55,52.78z"/>
			<path class="st6" d="M43.46,51.88c0.12,0,0.21-0.1,0.21-0.21V38.61c0-0.12-0.1-0.21-0.21-0.21h-2.81c-0.12,0-0.21,0.1-0.21,0.21     v13.05c0,0.12,0.1,0.21,0.21,0.21H43.46z"/>
			<path class="st6" d="M44.47,36.7c0-0.27-0.22-0.5-0.5-0.5h-3.83c-0.27,0-0.5,0.22-0.5,0.5v0.83c0,0.27,0.22,0.5,0.5,0.5h3.83     c0.27,0,0.5-0.22,0.5-0.5V36.7z"/>
			<path class="st6" d="M39.65,52.78v0.73c0,0.27,0.22,0.5,0.5,0.5h3.83c0.27,0,0.5-0.22,0.5-0.5v-0.73c0-0.27-0.22-0.5-0.5-0.5     h-3.83C39.87,52.28,39.65,52.5,39.65,52.78z"/>
			<path class="st6" d="M55.56,51.88c0.12,0,0.21-0.1,0.21-0.21V38.61c0-0.12-0.1-0.21-0.21-0.21h-2.81c-0.12,0-0.21,0.1-0.21,0.21     v13.05c0,0.12,0.1,0.21,0.21,0.21H55.56z"/>
			<path class="st6" d="M56.57,36.7c0-0.27-0.22-0.5-0.5-0.5h-3.83c-0.27,0-0.5,0.22-0.5,0.5v0.83c0,0.27,0.22,0.5,0.5,0.5h3.83     c0.27,0,0.5-0.22,0.5-0.5V36.7z"/>
			<path class="st6" d="M51.74,52.78v0.73c0,0.27,0.22,0.5,0.5,0.5h3.83c0.27,0,0.5-0.22,0.5-0.5v-0.73c0-0.27-0.22-0.5-0.5-0.5     h-3.83C51.96,52.28,51.74,52.5,51.74,52.78z"/>
			<path class="st6" d="M26.22,35.56H42h15.78c0.6,0,0.81-0.7,0.29-0.96l-15.78-9.16c-0.18-0.09-0.41-0.09-0.59,0L25.93,34.6     C25.41,34.87,25.62,35.56,26.22,35.56z"/>
			<path class="st6" d="M58.06,55.57v-0.18c0-0.4-0.33-0.73-0.73-0.73H26.67c-0.4,0-0.73,0.33-0.73,0.73v0.18     c-0.31,0.11-0.53,0.41-0.53,0.76v1.49c0,0.45,0.36,0.81,0.81,0.81h31.56c0.45,0,0.81-0.36,0.81-0.81v-1.49     C58.59,55.98,58.37,55.68,58.06,55.57z"/>
		</g>
		<g>
			<g>
				<path class="st5" d="M29.37,49.88c0.12,0,0.21-0.1,0.21-0.21V36.61c0-0.12-0.1-0.21-0.21-0.21h-2.81c-0.12,0-0.21,0.1-0.21,0.21      v13.05c0,0.12,0.1,0.21,0.21,0.21H29.37z"/>
				<path class="st5" d="M30.37,34.7c0-0.27-0.22-0.5-0.5-0.5h-3.83c-0.27,0-0.5,0.22-0.5,0.5v0.83c0,0.27,0.22,0.5,0.5,0.5h3.83      c0.27,0,0.5-0.22,0.5-0.5V34.7z"/>
				<path class="st5" d="M25.55,50.78v0.73c0,0.27,0.22,0.5,0.5,0.5h3.83c0.27,0,0.5-0.22,0.5-0.5v-0.73c0-0.27-0.22-0.5-0.5-0.5      h-3.83C25.77,50.28,25.55,50.5,25.55,50.78z"/>
				<path class="st5" d="M41.46,49.88c0.12,0,0.21-0.1,0.21-0.21V36.61c0-0.12-0.1-0.21-0.21-0.21h-2.81c-0.12,0-0.21,0.1-0.21,0.21      v13.05c0,0.12,0.1,0.21,0.21,0.21H41.46z"/>
				<path class="st5" d="M42.47,34.7c0-0.27-0.22-0.5-0.5-0.5h-3.83c-0.27,0-0.5,0.22-0.5,0.5v0.83c0,0.27,0.22,0.5,0.5,0.5h3.83      c0.27,0,0.5-0.22,0.5-0.5V34.7z"/>
				<path class="st5" d="M37.65,50.78v0.73c0,0.27,0.22,0.5,0.5,0.5h3.83c0.27,0,0.5-0.22,0.5-0.5v-0.73c0-0.27-0.22-0.5-0.5-0.5      h-3.83C37.87,50.28,37.65,50.5,37.65,50.78z"/>
				<path class="st5" d="M53.56,49.88c0.12,0,0.21-0.1,0.21-0.21V36.61c0-0.12-0.1-0.21-0.21-0.21h-2.81c-0.12,0-0.21,0.1-0.21,0.21      v13.05c0,0.12,0.1,0.21,0.21,0.21H53.56z"/>
				<path class="st5" d="M54.57,34.7c0-0.27-0.22-0.5-0.5-0.5h-3.83c-0.27,0-0.5,0.22-0.5,0.5v0.83c0,0.27,0.22,0.5,0.5,0.5h3.83      c0.27,0,0.5-0.22,0.5-0.5V34.7z"/>
				<path class="st5" d="M49.74,50.78v0.73c0,0.27,0.22,0.5,0.5,0.5h3.83c0.27,0,0.5-0.22,0.5-0.5v-0.73c0-0.27-0.22-0.5-0.5-0.5      h-3.83C49.96,50.28,49.74,50.5,49.74,50.78z"/>
				<path class="st5" d="M24.22,33.56H40h15.78c0.6,0,0.81-0.7,0.29-0.96l-15.78-9.16c-0.18-0.09-0.41-0.09-0.59,0L23.93,32.6      C23.41,32.87,23.62,33.56,24.22,33.56z"/>
				<path class="st5" d="M56.06,53.57v-0.18c0-0.4-0.33-0.73-0.73-0.73H24.67c-0.4,0-0.73,0.33-0.73,0.73v0.18      c-0.31,0.11-0.53,0.41-0.53,0.76v1.49c0,0.45,0.36,0.81,0.81,0.81h31.56c0.45,0,0.81-0.36,0.81-0.81v-1.49      C56.59,53.98,56.37,53.68,56.06,53.57z"/>
			</g>
		</g>
	</g>
</g>
<g id="Finance_1_" class="st1">
	<g class="st2">
		<g>
			<circle class="st6" cx="42.08" cy="42.08" r="13.4"/>
		</g>
		<g>
			<circle class="st0" cx="40" cy="40" r="13.4"/>
		</g>
	</g>
	<path class="st7" d="M40,51.22c6.18,0,11.21-5.04,11.21-11.22c0-6.17-5.03-11.21-11.21-11.21s-11.21,5.04-11.21,11.21   C28.79,46.18,33.82,51.22,40,51.22z M35.78,37.11c0-1.67,0.95-2.91,2.34-3.56v-1.52h3.64v1.41c1.43,0.59,2.57,1.95,2.57,3.66H41.3   c-0.41-2.24-3.95-0.09-1.78,1.04c1.55,0.79,5.15,0.78,5.15,4.28c0,2.05-1.36,3.59-2.91,4.11v1.44h-3.64v-1.43   c-1.67-0.66-2.81-2.1-2.81-4.15h3.18c0.38,2.05,3.08,1.76,3.08,0.21C41.57,40.35,35.78,41.59,35.78,37.11z"/>
	<path class="st7" d="M40,53.4c7.4,0,13.4-6,13.4-13.41c0-7.4-6-13.4-13.4-13.4c-7.4,0-13.4,6-13.4,13.4   C26.6,47.4,32.6,53.4,40,53.4z M40,27.83c6.71,0,12.17,5.46,12.17,12.17c0,6.72-5.46,12.18-12.17,12.18s-12.17-5.46-12.17-12.18   C27.83,33.29,33.29,27.83,40,27.83z"/>
</g>
<g id="Cities" class="st1">
	<g class="st2">
		<g>
			<path class="st6" d="M58.85,33.3l-2.52-1.82c-0.11-0.12-0.26-0.18-0.42-0.18H43.33v-4.51h0.27c0.39,0,0.7-0.32,0.7-0.7v-1.27     c0-0.39-0.32-0.7-0.7-0.7h-3.14c-0.39,0-0.7,0.32-0.7,0.7v1.27c0,0.39,0.32,0.7,0.7,0.7h0.27v2.28H28.08     c-0.16,0-0.31,0.07-0.42,0.18l-2.52,1.82c-0.2,0.22-0.2,0.55,0,0.77l2.52,1.84c0.11,0.12,0.26,0.18,0.42,0.18h12.65v3.69H28.08     c-0.16,0-0.31,0.07-0.42,0.18l-2.52,1.82c-0.2,0.22-0.2,0.55,0,0.77l2.52,1.84c0.11,0.12,0.26,0.18,0.42,0.18h12.65v17.54h2.6     v-23.8h12.58c0.16,0,0.31-0.07,0.42-0.18l2.52-1.84C59.05,33.85,59.05,33.52,58.85,33.3z"/>
		</g>
		<g>
			<path class="st5" d="M56.85,31.3l-2.52-1.82c-0.11-0.12-0.26-0.18-0.42-0.18H41.33v-4.51h0.27c0.39,0,0.7-0.32,0.7-0.7v-1.27     c0-0.39-0.32-0.7-0.7-0.7h-3.14c-0.39,0-0.7,0.32-0.7,0.7v1.27c0,0.39,0.32,0.7,0.7,0.7h0.27v2.28H26.08     c-0.16,0-0.31,0.07-0.42,0.18l-2.52,1.82c-0.2,0.22-0.2,0.55,0,0.77l2.52,1.84c0.11,0.12,0.26,0.18,0.42,0.18h12.65v3.69H26.08     c-0.16,0-0.31,0.07-0.42,0.18l-2.52,1.82c-0.2,0.22-0.2,0.55,0,0.77l2.52,1.84c0.11,0.12,0.26,0.18,0.42,0.18h12.65v17.54h2.6     v-23.8h12.58c0.16,0,0.31-0.07,0.42-0.18l2.52-1.84C57.05,31.85,57.05,31.52,56.85,31.3z"/>
		</g>
	</g>
</g>
<g id="Layer_7" class="st1">
	<g class="st2">
		<g>
			<path class="st6" d="M55.49,52.3H28.51c-0.46,0-0.83,0.37-0.83,0.83v1.73c0,0.46,0.37,0.83,0.83,0.83h26.99     c0.46,0,0.83-0.37,0.83-0.83v-1.73C56.33,52.68,55.95,52.3,55.49,52.3z"/>
			<path class="st6" d="M50.25,46.73l-1.27-4.93l-1.22-4.74l-1.27-4.93l-1.26-4.88c-0.13-0.51-0.67-0.93-1.2-0.93h-4.06     c-0.53,0-1.07,0.42-1.2,0.93l-1.26,4.88l-1.27,4.93l-1.22,4.74l-1.27,4.93l-1.25,4.84h18.99L50.25,46.73z M39.97,26.67h4.06     c0.33,0,0.67,0.25,0.8,0.56h-5.66C39.3,26.93,39.64,26.67,39.97,26.67z M37.87,32.21l0.02-0.09h8.22l0.02,0.09l1.25,4.84H36.62     L37.87,32.21z M34.13,46.73l1.25-4.84l0.02-0.09h13.2l0.02,0.09l1.25,4.84H34.13z"/>
		</g>
		<g>
			<g>
				<path class="st5" d="M53.49,50.3H26.51c-0.46,0-0.83,0.37-0.83,0.83v1.73c0,0.46,0.37,0.83,0.83,0.83h26.99      c0.46,0,0.83-0.37,0.83-0.83v-1.73C54.33,50.68,53.95,50.3,53.49,50.3z"/>
				<path class="st5" d="M48.25,44.73l-1.27-4.93l-1.22-4.74l-1.27-4.93l-1.26-4.88c-0.13-0.51-0.67-0.93-1.2-0.93h-4.06      c-0.53,0-1.07,0.42-1.2,0.93l-1.26,4.88l-1.27,4.93l-1.22,4.74l-1.27,4.93l-1.25,4.84h18.99L48.25,44.73z M37.97,24.67h4.06      c0.33,0,0.67,0.25,0.8,0.56h-5.66C37.3,24.93,37.64,24.67,37.97,24.67z M35.87,30.21l0.02-0.09h8.22l0.02,0.09l1.25,4.84H34.62      L35.87,30.21z M32.13,44.73l1.25-4.84l0.02-0.09h13.2l0.02,0.09l1.25,4.84H32.13z"/>
			</g>
		</g>
	</g>
</g>
<g id="Finance" class="st1">
	<g class="st2">
		<g>
			<path class="st6" d="M52.92,26.56H31.09c-1.56,0-2.83,1.27-2.83,2.83v25.22c0,1.56,1.27,2.83,2.83,2.83h21.83     c1.56,0,2.83-1.27,2.83-2.83V29.39C55.74,27.83,54.47,26.56,52.92,26.56z M31.62,32.17c0-0.72,0.59-1.3,1.3-1.3h18.15     c0.72,0,1.3,0.59,1.3,1.3v5.02c0,0.72-0.59,1.3-1.3,1.3H32.92c-0.72,0-1.3-0.59-1.3-1.3V32.17z M36.99,53.4c0,0.55-0.45,1-0.99,1     h-3.35c-0.55,0-1-0.45-1-1v-3.35c0-0.55,0.45-0.99,1-0.99h3.35c0.55,0,0.99,0.45,0.99,0.99V53.4z M36.99,46.87     c0,0.55-0.45,0.99-0.99,0.99h-3.35c-0.55,0-1-0.45-1-0.99v-3.35c0-0.55,0.45-0.99,1-0.99h3.35c0.55,0,0.99,0.45,0.99,0.99V46.87z      M44.67,53.4c0,0.55-0.45,1-0.99,1h-3.35c-0.55,0-0.99-0.45-0.99-1v-3.35c0-0.55,0.45-0.99,0.99-0.99h3.35     c0.55,0,0.99,0.45,0.99,0.99V53.4z M44.67,46.87c0,0.55-0.45,0.99-0.99,0.99h-3.35c-0.55,0-0.99-0.45-0.99-0.99v-3.35     c0-0.55,0.45-0.99,0.99-0.99h3.35c0.55,0,0.99,0.45,0.99,0.99V46.87z M52.38,53.4c0,0.55-0.45,1-0.99,1h-3.35     c-0.55,0-0.99-0.45-0.99-1v-9.88c0-0.55,0.45-0.99,0.99-0.99h3.35c0.55,0,0.99,0.45,0.99,0.99V53.4z"/>
			<path class="st6" d="M47.19,34.49h0.42c0.18,0,0.32-0.15,0.32-0.33v-0.42c0-0.18-0.15-0.32-0.32-0.32h-0.42     c-0.18,0-0.32,0.14-0.32,0.32v0.42C46.86,34.34,47.01,34.49,47.19,34.49z"/>
			<path class="st6" d="M43.15,34.49h0.42c0.18,0,0.33-0.15,0.33-0.33v-0.42c0-0.18-0.15-0.32-0.33-0.32h-0.42     c-0.18,0-0.32,0.14-0.32,0.32v0.42C42.83,34.34,42.97,34.49,43.15,34.49z"/>
			<path class="st6" d="M43.15,33.04h0.42c0.18,0,0.33-0.15,0.33-0.32v-0.42c0-0.18-0.15-0.32-0.33-0.32h-0.42     c-0.18,0-0.32,0.14-0.32,0.32v0.42C42.83,32.89,42.97,33.04,43.15,33.04z"/>
			<path class="st6" d="M47.19,33.04h0.42c0.18,0,0.32-0.15,0.32-0.32v-0.42c0-0.18-0.15-0.32-0.32-0.32h-0.42     c-0.18,0-0.32,0.14-0.32,0.32v0.42C46.86,32.89,47.01,33.04,47.19,33.04z"/>
			<path class="st6" d="M47.19,37.4h0.42c0.18,0,0.32-0.15,0.32-0.32v-0.42c0-0.18-0.15-0.32-0.32-0.32h-0.42     c-0.18,0-0.32,0.14-0.32,0.32v0.42C46.86,37.25,47.01,37.4,47.19,37.4z"/>
			<path class="st6" d="M47.19,35.94h0.42c0.18,0,0.32-0.14,0.32-0.32V35.2c0-0.18-0.15-0.32-0.32-0.32h-0.42     c-0.18,0-0.32,0.14-0.32,0.32v0.42C46.86,35.8,47.01,35.94,47.19,35.94z"/>
			<path class="st6" d="M45.15,37.4h0.42c0.18,0,0.32-0.15,0.32-0.32v-0.42c0-0.18-0.15-0.32-0.32-0.32h-0.42     c-0.18,0-0.32,0.14-0.32,0.32v0.42C44.83,37.25,44.97,37.4,45.15,37.4z"/>
			<path class="st6" d="M50.07,34.49h0.42c0.18,0,0.32-0.15,0.32-0.33v-0.42c0-0.18-0.14-0.32-0.32-0.32h-0.42     c-0.18,0-0.32,0.14-0.32,0.32v0.42C49.75,34.34,49.89,34.49,50.07,34.49z"/>
			<path class="st6" d="M50.07,33.04h0.42c0.18,0,0.32-0.15,0.32-0.32v-0.42c0-0.18-0.14-0.32-0.32-0.32h-0.42     c-0.18,0-0.32,0.14-0.32,0.32v0.42C49.75,32.89,49.89,33.04,50.07,33.04z"/>
			<path class="st6" d="M50.07,35.94h0.42c0.18,0,0.32-0.14,0.32-0.32V35.2c0-0.18-0.14-0.32-0.32-0.32h-0.42     c-0.18,0-0.32,0.14-0.32,0.32v0.42C49.75,35.8,49.89,35.94,50.07,35.94z"/>
			<path class="st6" d="M48.59,33.04h0.42c0.18,0,0.32-0.15,0.32-0.32v-0.42c0-0.18-0.14-0.32-0.32-0.32h-0.42     c-0.18,0-0.32,0.14-0.32,0.32v0.42C48.26,32.89,48.41,33.04,48.59,33.04z"/>
			<path class="st6" d="M50.07,37.4h0.42c0.18,0,0.32-0.15,0.32-0.32v-0.42c0-0.18-0.14-0.32-0.32-0.32h-0.42     c-0.18,0-0.32,0.14-0.32,0.32v0.42C49.75,37.25,49.89,37.4,50.07,37.4z"/>
			<path class="st6" d="M48.59,37.4h0.42c0.18,0,0.32-0.15,0.32-0.32v-0.42c0-0.18-0.14-0.32-0.32-0.32h-0.42     c-0.18,0-0.32,0.14-0.32,0.32v0.42C48.26,37.25,48.41,37.4,48.59,37.4z"/>
			<path class="st6" d="M40.27,33.04h0.42c0.18,0,0.32-0.15,0.32-0.32v-0.42c0-0.18-0.14-0.32-0.32-0.32h-0.42     c-0.18,0-0.32,0.14-0.32,0.32v0.42C39.94,32.89,40.09,33.04,40.27,33.04z"/>
			<path class="st6" d="M43.15,35.94h0.42c0.18,0,0.33-0.14,0.33-0.32V35.2c0-0.18-0.15-0.32-0.33-0.32h-0.42     c-0.18,0-0.32,0.14-0.32,0.32v0.42C42.83,35.8,42.97,35.94,43.15,35.94z"/>
			<path class="st6" d="M40.27,34.49h0.42c0.18,0,0.32-0.15,0.32-0.33v-0.42c0-0.18-0.14-0.32-0.32-0.32h-0.42     c-0.18,0-0.32,0.14-0.32,0.32v0.42C39.94,34.34,40.09,34.49,40.27,34.49z"/>
			<path class="st6" d="M40.27,37.4h0.42c0.18,0,0.32-0.15,0.32-0.32v-0.42c0-0.18-0.14-0.32-0.32-0.32h-0.42     c-0.18,0-0.32,0.14-0.32,0.32v0.42C39.94,37.25,40.09,37.4,40.27,37.4z"/>
			<path class="st6" d="M40.27,35.94h0.42c0.18,0,0.32-0.14,0.32-0.32V35.2c0-0.18-0.14-0.32-0.32-0.32h-0.42     c-0.18,0-0.32,0.14-0.32,0.32v0.42C39.94,35.8,40.09,35.94,40.27,35.94z"/>
			<path class="st6" d="M43.15,37.4h0.42c0.18,0,0.33-0.15,0.33-0.32v-0.42c0-0.18-0.15-0.32-0.33-0.32h-0.42     c-0.18,0-0.32,0.14-0.32,0.32v0.42C42.83,37.25,42.97,37.4,43.15,37.4z"/>
			<path class="st6" d="M41.67,37.4h0.42c0.18,0,0.32-0.15,0.32-0.32v-0.42c0-0.18-0.14-0.32-0.32-0.32h-0.42     c-0.18,0-0.32,0.14-0.32,0.32v0.42C41.34,37.25,41.49,37.4,41.67,37.4z"/>
			<path class="st6" d="M41.67,33.04h0.42c0.18,0,0.32-0.15,0.32-0.32v-0.42c0-0.18-0.14-0.32-0.32-0.32h-0.42     c-0.18,0-0.32,0.14-0.32,0.32v0.42C41.34,32.89,41.49,33.04,41.67,33.04z"/>
			<rect x="32.59" y="44.73" class="st6" width="3.46" height="0.92"/>
			<polygon class="st6" points="34.69,50.14 33.9,50.14 33.9,51.32 32.71,51.32 32.71,52.13 33.9,52.13 33.9,53.31 34.69,53.31      34.69,52.13 35.88,52.13 35.88,51.32 34.69,51.32    "/>
			<rect x="48.12" y="48.58" class="st6" width="3.18" height="0.8"/>
			<rect x="48.12" y="47.2" class="st6" width="3.18" height="0.8"/>
			<path class="st6" d="M43.25,50.82c-0.2,0.08-0.43,0.17-0.67,0.28c-0.18,0.08-0.29,0.14-0.35,0.16c0.07-0.53,0.11-0.89,0.11-1.08     h-0.72c0,0.28,0.03,0.64,0.1,1.07c-0.28-0.17-0.59-0.33-0.94-0.47l-0.24,0.71c0.07,0.03,0.22,0.07,0.45,0.13     c0.32,0.08,0.51,0.12,0.58,0.13c-0.02,0.02-0.07,0.07-0.16,0.15c-0.21,0.2-0.41,0.41-0.61,0.63L41.41,53     c0.21-0.33,0.4-0.64,0.56-0.93l0.54,0.9l0.62-0.41c-0.06-0.07-0.13-0.16-0.23-0.27l-0.49-0.54c0.39-0.07,0.74-0.13,1.04-0.2     L43.25,50.82z"/>
			<polygon class="st6" points="40.76,47.01 41.47,47.01 43.29,43.38 42.59,43.38    "/>
		</g>
		<g>
			<g>
				<path class="st5" d="M50.92,24.56H29.09c-1.56,0-2.83,1.27-2.83,2.83v25.22c0,1.56,1.27,2.83,2.83,2.83h21.83      c1.56,0,2.83-1.27,2.83-2.83V27.39C53.74,25.83,52.47,24.56,50.92,24.56z M29.62,30.17c0-0.72,0.59-1.3,1.3-1.3h18.15      c0.72,0,1.3,0.59,1.3,1.3v5.02c0,0.72-0.59,1.3-1.3,1.3H30.92c-0.72,0-1.3-0.59-1.3-1.3V30.17z M34.99,51.4      c0,0.55-0.45,1-0.99,1h-3.35c-0.55,0-1-0.45-1-1v-3.35c0-0.55,0.45-0.99,1-0.99h3.35c0.55,0,0.99,0.45,0.99,0.99V51.4z       M34.99,44.87c0,0.55-0.45,0.99-0.99,0.99h-3.35c-0.55,0-1-0.45-1-0.99v-3.35c0-0.55,0.45-0.99,1-0.99h3.35      c0.55,0,0.99,0.45,0.99,0.99V44.87z M42.67,51.4c0,0.55-0.45,1-0.99,1h-3.35c-0.55,0-0.99-0.45-0.99-1v-3.35      c0-0.55,0.45-0.99,0.99-0.99h3.35c0.55,0,0.99,0.45,0.99,0.99V51.4z M42.67,44.87c0,0.55-0.45,0.99-0.99,0.99h-3.35      c-0.55,0-0.99-0.45-0.99-0.99v-3.35c0-0.55,0.45-0.99,0.99-0.99h3.35c0.55,0,0.99,0.45,0.99,0.99V44.87z M50.38,51.4      c0,0.55-0.45,1-0.99,1h-3.35c-0.55,0-0.99-0.45-0.99-1v-9.88c0-0.55,0.45-0.99,0.99-0.99h3.35c0.55,0,0.99,0.45,0.99,0.99V51.4z      "/>
				<path class="st5" d="M45.19,32.49h0.42c0.18,0,0.32-0.15,0.32-0.33v-0.42c0-0.18-0.15-0.32-0.32-0.32h-0.42      c-0.18,0-0.32,0.14-0.32,0.32v0.42C44.86,32.34,45.01,32.49,45.19,32.49z"/>
				<path class="st5" d="M41.15,32.49h0.42c0.18,0,0.33-0.15,0.33-0.33v-0.42c0-0.18-0.15-0.32-0.33-0.32h-0.42      c-0.18,0-0.32,0.14-0.32,0.32v0.42C40.83,32.34,40.97,32.49,41.15,32.49z"/>
				<path class="st5" d="M41.15,31.04h0.42c0.18,0,0.33-0.15,0.33-0.32v-0.42c0-0.18-0.15-0.32-0.33-0.32h-0.42      c-0.18,0-0.32,0.14-0.32,0.32v0.42C40.83,30.89,40.97,31.04,41.15,31.04z"/>
				<path class="st5" d="M45.19,31.04h0.42c0.18,0,0.32-0.15,0.32-0.32v-0.42c0-0.18-0.15-0.32-0.32-0.32h-0.42      c-0.18,0-0.32,0.14-0.32,0.32v0.42C44.86,30.89,45.01,31.04,45.19,31.04z"/>
				<path class="st5" d="M45.19,35.4h0.42c0.18,0,0.32-0.15,0.32-0.32v-0.42c0-0.18-0.15-0.32-0.32-0.32h-0.42      c-0.18,0-0.32,0.14-0.32,0.32v0.42C44.86,35.25,45.01,35.4,45.19,35.4z"/>
				<path class="st5" d="M45.19,33.94h0.42c0.18,0,0.32-0.14,0.32-0.32V33.2c0-0.18-0.15-0.32-0.32-0.32h-0.42      c-0.18,0-0.32,0.14-0.32,0.32v0.42C44.86,33.8,45.01,33.94,45.19,33.94z"/>
				<path class="st5" d="M43.15,35.4h0.42c0.18,0,0.32-0.15,0.32-0.32v-0.42c0-0.18-0.15-0.32-0.32-0.32h-0.42      c-0.18,0-0.32,0.14-0.32,0.32v0.42C42.83,35.25,42.97,35.4,43.15,35.4z"/>
				<path class="st5" d="M48.07,32.49h0.42c0.18,0,0.32-0.15,0.32-0.33v-0.42c0-0.18-0.14-0.32-0.32-0.32h-0.42      c-0.18,0-0.32,0.14-0.32,0.32v0.42C47.75,32.34,47.89,32.49,48.07,32.49z"/>
				<path class="st5" d="M48.07,31.04h0.42c0.18,0,0.32-0.15,0.32-0.32v-0.42c0-0.18-0.14-0.32-0.32-0.32h-0.42      c-0.18,0-0.32,0.14-0.32,0.32v0.42C47.75,30.89,47.89,31.04,48.07,31.04z"/>
				<path class="st5" d="M48.07,33.94h0.42c0.18,0,0.32-0.14,0.32-0.32V33.2c0-0.18-0.14-0.32-0.32-0.32h-0.42      c-0.18,0-0.32,0.14-0.32,0.32v0.42C47.75,33.8,47.89,33.94,48.07,33.94z"/>
				<path class="st5" d="M46.59,31.04h0.42c0.18,0,0.32-0.15,0.32-0.32v-0.42c0-0.18-0.14-0.32-0.32-0.32h-0.42      c-0.18,0-0.32,0.14-0.32,0.32v0.42C46.26,30.89,46.41,31.04,46.59,31.04z"/>
				<path class="st5" d="M48.07,35.4h0.42c0.18,0,0.32-0.15,0.32-0.32v-0.42c0-0.18-0.14-0.32-0.32-0.32h-0.42      c-0.18,0-0.32,0.14-0.32,0.32v0.42C47.75,35.25,47.89,35.4,48.07,35.4z"/>
				<path class="st5" d="M46.59,35.4h0.42c0.18,0,0.32-0.15,0.32-0.32v-0.42c0-0.18-0.14-0.32-0.32-0.32h-0.42      c-0.18,0-0.32,0.14-0.32,0.32v0.42C46.26,35.25,46.41,35.4,46.59,35.4z"/>
				<path class="st5" d="M38.27,31.04h0.42c0.18,0,0.32-0.15,0.32-0.32v-0.42c0-0.18-0.14-0.32-0.32-0.32h-0.42      c-0.18,0-0.32,0.14-0.32,0.32v0.42C37.94,30.89,38.09,31.04,38.27,31.04z"/>
				<path class="st5" d="M41.15,33.94h0.42c0.18,0,0.33-0.14,0.33-0.32V33.2c0-0.18-0.15-0.32-0.33-0.32h-0.42      c-0.18,0-0.32,0.14-0.32,0.32v0.42C40.83,33.8,40.97,33.94,41.15,33.94z"/>
				<path class="st5" d="M38.27,32.49h0.42c0.18,0,0.32-0.15,0.32-0.33v-0.42c0-0.18-0.14-0.32-0.32-0.32h-0.42      c-0.18,0-0.32,0.14-0.32,0.32v0.42C37.94,32.34,38.09,32.49,38.27,32.49z"/>
				<path class="st5" d="M38.27,35.4h0.42c0.18,0,0.32-0.15,0.32-0.32v-0.42c0-0.18-0.14-0.32-0.32-0.32h-0.42      c-0.18,0-0.32,0.14-0.32,0.32v0.42C37.94,35.25,38.09,35.4,38.27,35.4z"/>
				<path class="st5" d="M38.27,33.94h0.42c0.18,0,0.32-0.14,0.32-0.32V33.2c0-0.18-0.14-0.32-0.32-0.32h-0.42      c-0.18,0-0.32,0.14-0.32,0.32v0.42C37.94,33.8,38.09,33.94,38.27,33.94z"/>
				<path class="st5" d="M41.15,35.4h0.42c0.18,0,0.33-0.15,0.33-0.32v-0.42c0-0.18-0.15-0.32-0.33-0.32h-0.42      c-0.18,0-0.32,0.14-0.32,0.32v0.42C40.83,35.25,40.97,35.4,41.15,35.4z"/>
				<path class="st5" d="M39.67,35.4h0.42c0.18,0,0.32-0.15,0.32-0.32v-0.42c0-0.18-0.14-0.32-0.32-0.32h-0.42      c-0.18,0-0.32,0.14-0.32,0.32v0.42C39.34,35.25,39.49,35.4,39.67,35.4z"/>
				<path class="st5" d="M39.67,31.04h0.42c0.18,0,0.32-0.15,0.32-0.32v-0.42c0-0.18-0.14-0.32-0.32-0.32h-0.42      c-0.18,0-0.32,0.14-0.32,0.32v0.42C39.34,30.89,39.49,31.04,39.67,31.04z"/>
				<rect x="30.59" y="42.73" class="st5" width="3.46" height="0.92"/>
				<polygon class="st5" points="32.69,48.14 31.9,48.14 31.9,49.32 30.71,49.32 30.71,50.13 31.9,50.13 31.9,51.31 32.69,51.31       32.69,50.13 33.88,50.13 33.88,49.32 32.69,49.32     "/>
				<rect x="46.12" y="46.58" class="st5" width="3.18" height="0.8"/>
				<rect x="46.12" y="45.2" class="st5" width="3.18" height="0.8"/>
				<path class="st5" d="M41.25,48.82c-0.2,0.08-0.43,0.17-0.67,0.28c-0.18,0.08-0.29,0.14-0.35,0.16c0.07-0.53,0.11-0.89,0.11-1.08      h-0.72c0,0.28,0.03,0.64,0.1,1.07c-0.28-0.17-0.59-0.33-0.94-0.47l-0.24,0.71c0.07,0.03,0.22,0.07,0.45,0.13      c0.32,0.08,0.51,0.12,0.58,0.13c-0.02,0.02-0.07,0.07-0.16,0.15c-0.21,0.2-0.41,0.41-0.61,0.63L39.41,51      c0.21-0.33,0.4-0.64,0.56-0.93l0.54,0.9l0.62-0.41c-0.06-0.07-0.13-0.16-0.23-0.27l-0.49-0.54c0.39-0.07,0.74-0.13,1.04-0.2      L41.25,48.82z"/>
				<polygon class="st5" points="38.76,45.01 39.47,45.01 41.29,41.38 40.59,41.38     "/>
			</g>
		</g>
	</g>
</g>
<g id="State" class="st1">
	<g class="st2">
		<g>
			<path class="st6" d="M61,56.12c-0.01-0.04-0.03-0.08-0.07-0.12c-0.17-0.17-0.44-0.27-0.63-0.43c-0.18-0.15-0.17-0.23-0.2-0.44     c-0.01-0.09-0.09-0.13-0.13-0.2c-0.05-0.08-0.04-0.14-0.06-0.23c-0.04-0.14-0.15-0.45-0.26-0.55c-0.07-0.07-0.17-0.03-0.22-0.14     c-0.03-0.06-0.01-0.13-0.03-0.2c-0.06-0.13-0.17-0.2-0.21-0.35c-0.02-0.08,0.02-0.4-0.03-0.44c-0.84-0.78-1.68-1.56-2.51-2.36     c-0.81-0.78-1.62-1.56-2.43-2.35c-0.82-0.79-1.63-1.58-2.45-2.37c-0.04-0.04-0.09-0.09-0.13-0.13c-0.84-0.78-1.68-1.57-2.51-2.35     c-0.79-0.74-1.58-1.48-2.37-2.23c-0.19-0.17-0.37-0.35-0.56-0.52c-0.87-0.76-1.73-1.52-2.59-2.29c-0.86-0.76-1.72-1.52-2.58-2.29     c-0.59-0.53-1.18-1.05-1.77-1.58c-0.01-1.14,0-2.28,0-3.42c0-1.06,0-2.12,0-3.18c0-1.18,0-2.36,0-3.55c0-1.17,0-2.34,0-3.51     c0-0.3,0-0.61,0-0.91c-0.14,0-0.28,0-0.42,0c-0.33,0-0.66,0-0.99,0c-0.54,0-1.07,0-1.61,0c-0.65,0-1.3,0-1.95,0     c-0.71,0-1.41,0-2.12,0c-0.73,0-1.45,0-2.18,0c-0.7,0-1.4,0-2.1,0c-0.62,0-1.23,0-1.85,0c-0.46,0-0.92,0-1.38,0     c-0.29,0-0.58,0-0.86,0c-0.06,0-0.11,0-0.17,0c0.23,0.42-0.05,0.71-0.17,1.08c0,0,0.36,0.25,0.39,0.29     c0.11,0.16,0.15,0.37,0.2,0.56c0.03,0.13-0.02,0.27,0.14,0.34c-0.1-0.04,0.03,0.64,0.02,0.68c-0.05,0.38-0.15,0.76-0.29,1.12     c-0.14,0.35,0.09,0.56,0.08,0.89c-0.01,0.34-0.19,0.65-0.04,0.68c0.15,0.03,0.02,0.16-0.03,0.24c-0.04,0.06-0.43,0.54-0.33,0.58     c-0.07-0.03-0.24-0.03-0.25,0c-0.03,0.08-0.04,0.16-0.07,0.24c-0.04,0.1-0.12,0.17-0.15,0.27c-0.1,0.28-0.17,0.65-0.06,0.94     c0.03,0.08,0.08,0.17,0.08,0.26c0.02,0.17-0.04,0.32,0.06,0.47c0.11,0.16,0.31,0.25,0.45,0.36c0.12,0.09,0.48,0.55,0.58,0.66     c0.1,0.12,0.24,0.2,0.33,0.32c0.25,0.34,0.36,0.69,0.55,1.06c0.23,0.47,0.13,0.92,0.03,1.4c-0.07,0.36,0.01,0.79,0.15,1.12     c0.13,0.3,0.36,0.6,0.27,0.94c-0.02,0.09-0.11,0.12-0.13,0.2c-0.11,0.38,0.57,0.84,0.8,1.03c0.23,0.19,0.39,0.45,0.56,0.69     c0.15,0.2,0.34,0.35,0.54,0.49c0.22,0.16,0.32,0.28,0.45,0.52c0.03,0.05,0.09,0.09,0.11,0.13c0.04,0.09,0.4,0.66,0.58,0.86     c0.13,0.15,0.54,1.09,0.61,1.15c0.03,0.03,0.09,0.15,0.13,0.16c0.08,0.02,0.12-0.05,0.09-0.13c0.08,0.1,0.19,0.16,0.28,0.25     c0.08,0.09,0.29,0.33,0.43,0.24c0.12-0.08-0.07-0.21,0.04-0.3c0.02,0.03,0.03,0.05,0.06,0.08c0.15-0.07-0.22-0.26-0.15-0.3     c0.09-0.06,0.12-0.13,0.17-0.25c-0.22-0.1-0.21-0.46-0.18-0.59c0.14-0.05,0.16-0.18,0.38-0.23c0.01,0,0.4,0.25,0.43,0.28     c0.14,0.1,0.31,0.19,0.51,0.17c0.24-0.03,0.25-0.25,0.5-0.23c0.23,0.02,0.26,0.23,0.53,0.2c0.15-0.01,0.23-0.07,0.43-0.09     c0.02,0.05,0.52-0.09,0.18,0.29c0.01,0.02,0.02,0.04,0.03,0.05c-0.21,0.14-0.52-0.05-0.73-0.1c-0.18-0.04-0.37-0.04-0.56-0.02     c-0.16,0.02-0.33,0.09-0.49,0.03c-0.1-0.04-0.16-0.13-0.28-0.09c-0.16,0.05-0.23,0.36-0.6,0.48c-0.06,0.06,0.42,0.27,0.4,0.56     c-0.01,0.08-0.06,0.2-0.01,0.28c0.06,0.1,0.27,0.19,0.23,0.21c0.01,0.01,0.05,0.03,0.06,0.04c0,0-0.02,0.05-0.02,0.05     c0.06,0.02,0.16,0.03,0.21,0.07c0.06,0.05,0.08,0.15,0.1,0.22c0.07,0.23,0.05,0.5,0.25,0.66c0.04,0.03,0.08,0.05,0.12,0.09     c0.05,0.04,0.01,0.08,0.08,0.11c-0.08,0.14-0.24,0.03-0.32-0.06c-0.05-0.05-0.08-0.12-0.14-0.16c-0.01-0.01-0.2-0.07-0.18-0.03     c-0.03-0.06-0.11-0.13-0.16-0.18c-0.02-0.02-0.01-0.07-0.03-0.08c-0.04-0.02-0.07,0.01-0.1,0c-0.12-0.05-0.26-0.1-0.34-0.21     c-0.09-0.11-0.07-0.84-0.16-0.89c-0.25-0.12-0.37,0.17-0.35,0.36c0.01,0.11,0.06,0.21,0.06,0.33c0,0.16-0.07,0.3-0.08,0.46     c-0.01,0.18,0.07,0.19,0.18,0.3c0.1,0.1,0.09,0.22,0.15,0.35c0.06,0.13,0.12,0.25,0.12,0.39c0,0.17-0.09,0.33-0.06,0.51     c0.03,0.18,0.22,0.39,0.34,0.52c0.14,0.16,0.32,0.27,0.46,0.43c0.13,0.15,0.27,0.31,0.49,0.33c0.11,0.01,0.22-0.1,0.32,0     c0.05-0.03,0.15-0.08,0.22-0.08c0.08,0.01,0.15,0.06,0.2,0.12c0.11,0.13,0.12,0.32,0.16,0.48c0.08,0.31,0.21,0.73-0.09,0.99     c-0.12,0.1-0.15-0.02-0.27-0.02c-0.13,0.01-0.16,0.13-0.19,0.24c0-0.01,0.13,0.39,0.17,0.5c0.07,0.21,0.06,0.44,0.14,0.66     c0.08,0.22,0.19,0.35,0.41,0.44c0.45,0.19,0.47,0.76,0.88,0.96c0.22,0.11,0.24,0.33,0.31,0.53c0.06,0.19,0.16,0.29,0.3,0.43     c0.16,0.17,0.19,0.33,0.3,0.52c0.11,0.18,0.33,0.17,0.49,0.28c0.17,0.12,0.2,0.33,0.33,0.48c0.17,0.22,0.38,0.33,0.62,0.46     c0.14,0.07-0.01,0.84,0.27,1.03c0.26,0.18,0.68,0.01,0.75,0.43c0.04,0.24-0.1,0.48-0.13,0.71c-0.02,0.17,0.1,0.6,0.09,0.72     c0,0.14,0.1,0.26,0.08,0.4c-0.02,0.16-0.17,0.28-0.14,0.46c0.02,0.15,0.25,0.14,0.36,0.2c0.08,0.04,0.31,0.39,0.33,0.39     c0.23,0.02,0.45-0.07,0.68-0.09c0.25-0.02,0.51-0.01,0.76,0c0.27,0.01,0.42,0.15,0.66,0.22c0.17,0.05,0.84,0,1,0.01     c0.21,0,0.4,0.15,0.59,0.23c0.24,0.1,0.41,0.32,0.64,0.44c0.17,0.09,0.23,0.32,0.3,0.48c0.07,0.16,0.19,0.19,0.35,0.23     c0.19,0.05,0.33,0.16,0.51,0.24c0.19,0.08,0.4,0.11,0.59,0.18c0.2,0.07,0.49-0.09,0.71-0.1c0.24,0,0.44-0.01,0.6,0.19     c0.14,0.17,0.26,0.34,0.27,0.56c0,0.1-0.07,0.22-0.06,0.33c0.01,0.15,0.08,0.21,0.22,0.27c0.16,0.06,0.12,0.05,0.32-0.01     c0.23-0.06,0.45-0.13,0.62-0.04c0.14,0.09,0.23,0.24,0.34,0.36c0.23,0.24,0.56,0.33,0.8,0.55c0.27,0.24,0.54,0.5,0.82,0.72     c0.49,0.38,0.89,0.98,1.08,1.56c0.04,0.14,0.07,0.28,0.1,0.43c0.03,0.13,0.03,0.24-0.05,0.35c-0.06,0.08,0,0.16,0.04,0.24     c0.06,0.11,0.13,0.38,0.17,0.35c0.06-0.04,0.24,0.23,0.26,0.34c0.02,0.13-0.03,0.31,0.06,0.42c0,0,0.03,0.03,0.03,0.03     c1.14-0.1,2.27-0.2,3.41-0.3c1.14-0.1,2.27-0.2,3.4-0.3c0.45-0.04,0.91-0.08,1.36-0.12c0.19-0.02,0.51,0.02,0.68-0.06     c0.04-0.02,0.06-0.09,0.11-0.12c0.12-0.06,0.32,0.02,0.45,0.05c0.23,0.05,0.17-0.25,0.24-0.36c0.12-0.18,0.25-0.19,0.23-0.44     c-0.01-0.15-0.06-0.4-0.2-0.49c-0.18-0.11-0.53-0.01-0.67-0.19c-0.08-0.1-0.01-0.28,0-0.39c0.02-0.17,0.04-0.4-0.02-0.56     c-0.03-0.07-0.08-0.13-0.09-0.2c-0.01-0.08,0.04-0.15,0.03-0.23c-0.01-0.04-0.07-0.09-0.08-0.13c-0.01-0.03,0.2-0.04,0.22-0.04     c0.24-0.02,0.25-0.35,0.37-0.49c0.1-0.1,0.11-0.15,0.14-0.29c0.05-0.25,0.16-0.63,0.1-0.88c-0.02-0.1-0.05-0.12-0.03-0.23     c0.01-0.08,0.08-0.17,0.07-0.26c-0.01-0.08-0.1-0.15-0.1-0.23c0.01-0.1,0.15-0.15,0.22-0.21c0.13-0.11,0.14-0.24,0.19-0.4     c0.06-0.16,0.23-0.19,0.37-0.27c0.19-0.11,0.34-0.26,0.49-0.42C60.91,56.34,61.02,56.24,61,56.12z"/>
		</g>
		<g>
			<path class="st5" d="M59,54.12c-0.01-0.04-0.03-0.08-0.07-0.12c-0.17-0.17-0.44-0.27-0.63-0.43c-0.18-0.15-0.17-0.23-0.2-0.44     c-0.01-0.09-0.09-0.13-0.13-0.2c-0.05-0.08-0.04-0.14-0.06-0.23c-0.04-0.14-0.15-0.45-0.26-0.55c-0.07-0.07-0.17-0.03-0.22-0.14     c-0.03-0.06-0.01-0.13-0.03-0.2c-0.06-0.13-0.17-0.2-0.21-0.35c-0.02-0.08,0.02-0.4-0.03-0.44c-0.84-0.78-1.68-1.56-2.51-2.36     c-0.81-0.78-1.62-1.56-2.43-2.35c-0.82-0.79-1.63-1.58-2.45-2.37c-0.04-0.04-0.09-0.09-0.13-0.13c-0.84-0.78-1.68-1.57-2.51-2.35     c-0.79-0.74-1.58-1.48-2.37-2.23c-0.19-0.17-0.37-0.35-0.56-0.52c-0.87-0.76-1.73-1.52-2.59-2.29c-0.86-0.76-1.72-1.52-2.58-2.29     c-0.59-0.53-1.18-1.05-1.77-1.58c-0.01-1.14,0-2.28,0-3.42c0-1.06,0-2.12,0-3.18c0-1.18,0-2.36,0-3.55c0-1.17,0-2.34,0-3.51     c0-0.3,0-0.61,0-0.91c-0.14,0-0.28,0-0.42,0c-0.33,0-0.66,0-0.99,0c-0.54,0-1.07,0-1.61,0c-0.65,0-1.3,0-1.95,0     c-0.71,0-1.41,0-2.12,0c-0.73,0-1.45,0-2.18,0c-0.7,0-1.4,0-2.1,0c-0.62,0-1.23,0-1.85,0c-0.46,0-0.92,0-1.38,0     c-0.29,0-0.58,0-0.86,0c-0.06,0-0.11,0-0.17,0c0.23,0.42-0.05,0.71-0.17,1.08c0,0,0.36,0.25,0.39,0.29     c0.11,0.16,0.15,0.37,0.2,0.56c0.03,0.13-0.02,0.27,0.14,0.34c-0.1-0.04,0.03,0.64,0.02,0.68c-0.05,0.38-0.15,0.76-0.29,1.12     c-0.14,0.35,0.09,0.56,0.08,0.89c-0.01,0.34-0.19,0.65-0.04,0.68c0.15,0.03,0.02,0.16-0.03,0.24c-0.04,0.06-0.43,0.54-0.33,0.58     c-0.07-0.03-0.24-0.03-0.25,0c-0.03,0.08-0.04,0.16-0.07,0.24c-0.04,0.1-0.12,0.17-0.15,0.27c-0.1,0.28-0.17,0.65-0.06,0.94     c0.03,0.08,0.08,0.17,0.08,0.26c0.02,0.17-0.04,0.32,0.06,0.47c0.11,0.16,0.31,0.25,0.45,0.36c0.12,0.09,0.48,0.55,0.58,0.66     c0.1,0.12,0.24,0.2,0.33,0.32c0.25,0.34,0.36,0.69,0.55,1.06c0.23,0.47,0.13,0.92,0.03,1.4c-0.07,0.36,0.01,0.79,0.15,1.12     c0.13,0.3,0.36,0.6,0.27,0.94c-0.02,0.09-0.11,0.12-0.13,0.2c-0.11,0.38,0.57,0.84,0.8,1.03c0.23,0.19,0.39,0.45,0.56,0.69     c0.15,0.2,0.34,0.35,0.54,0.49c0.22,0.16,0.32,0.28,0.45,0.52c0.03,0.05,0.09,0.09,0.11,0.13c0.04,0.09,0.4,0.66,0.58,0.86     c0.13,0.15,0.54,1.09,0.61,1.15c0.03,0.03,0.09,0.15,0.13,0.16c0.08,0.02,0.12-0.05,0.09-0.13c0.08,0.1,0.19,0.16,0.28,0.25     c0.08,0.09,0.29,0.33,0.43,0.24c0.12-0.08-0.07-0.21,0.04-0.3c0.02,0.03,0.03,0.05,0.06,0.08c0.15-0.07-0.22-0.26-0.15-0.3     c0.09-0.06,0.12-0.13,0.17-0.25c-0.22-0.1-0.21-0.46-0.18-0.59c0.14-0.05,0.16-0.18,0.38-0.23c0.01,0,0.4,0.25,0.43,0.28     c0.14,0.1,0.31,0.19,0.51,0.17c0.24-0.03,0.25-0.25,0.5-0.23c0.23,0.02,0.26,0.23,0.53,0.2c0.15-0.01,0.23-0.07,0.43-0.09     c0.02,0.05,0.52-0.09,0.18,0.29c0.01,0.02,0.02,0.04,0.03,0.05c-0.21,0.14-0.52-0.05-0.73-0.1c-0.18-0.04-0.37-0.04-0.56-0.02     c-0.16,0.02-0.33,0.09-0.49,0.03c-0.1-0.04-0.16-0.13-0.28-0.09c-0.16,0.05-0.23,0.36-0.6,0.48c-0.06,0.06,0.42,0.27,0.4,0.56     c-0.01,0.08-0.06,0.2-0.01,0.28c0.06,0.1,0.27,0.19,0.23,0.21c0.01,0.01,0.05,0.03,0.06,0.04c0,0-0.02,0.05-0.02,0.05     c0.06,0.02,0.16,0.03,0.21,0.07c0.06,0.05,0.08,0.15,0.1,0.22c0.07,0.23,0.05,0.5,0.25,0.66c0.04,0.03,0.08,0.05,0.12,0.09     c0.05,0.04,0.01,0.08,0.08,0.11c-0.08,0.14-0.24,0.03-0.32-0.06c-0.05-0.05-0.08-0.12-0.14-0.16c-0.01-0.01-0.2-0.07-0.18-0.03     c-0.03-0.06-0.11-0.13-0.16-0.18c-0.02-0.02-0.01-0.07-0.03-0.08c-0.04-0.02-0.07,0.01-0.1,0c-0.12-0.05-0.26-0.1-0.34-0.21     c-0.09-0.11-0.07-0.84-0.16-0.89c-0.25-0.12-0.37,0.17-0.35,0.36c0.01,0.11,0.06,0.21,0.06,0.33c0,0.16-0.07,0.3-0.08,0.46     c-0.01,0.18,0.07,0.19,0.18,0.3c0.1,0.1,0.09,0.22,0.15,0.35c0.06,0.13,0.12,0.25,0.12,0.39c0,0.17-0.09,0.33-0.06,0.51     c0.03,0.18,0.22,0.39,0.34,0.52c0.14,0.16,0.32,0.27,0.46,0.43c0.13,0.15,0.27,0.31,0.49,0.33c0.11,0.01,0.22-0.1,0.32,0     c0.05-0.03,0.15-0.08,0.22-0.08c0.08,0.01,0.15,0.06,0.2,0.12c0.11,0.13,0.12,0.32,0.16,0.48c0.08,0.31,0.21,0.73-0.09,0.99     c-0.12,0.1-0.15-0.02-0.27-0.02c-0.13,0.01-0.16,0.13-0.19,0.24c0-0.01,0.13,0.39,0.17,0.5c0.07,0.21,0.06,0.44,0.14,0.66     c0.08,0.22,0.19,0.35,0.41,0.44c0.45,0.19,0.47,0.76,0.88,0.96c0.22,0.11,0.24,0.33,0.31,0.53c0.06,0.19,0.16,0.29,0.3,0.43     c0.16,0.17,0.19,0.33,0.3,0.52c0.11,0.18,0.33,0.17,0.49,0.28c0.17,0.12,0.2,0.33,0.33,0.48c0.17,0.22,0.38,0.33,0.62,0.46     c0.14,0.07-0.01,0.84,0.27,1.03c0.26,0.18,0.68,0.01,0.75,0.43c0.04,0.24-0.1,0.48-0.13,0.71c-0.02,0.17,0.1,0.6,0.09,0.72     c0,0.14,0.1,0.26,0.08,0.4c-0.02,0.16-0.17,0.28-0.14,0.46c0.02,0.15,0.25,0.14,0.36,0.2c0.08,0.04,0.31,0.39,0.33,0.39     c0.23,0.02,0.45-0.07,0.68-0.09c0.25-0.02,0.51-0.01,0.76,0c0.27,0.01,0.42,0.15,0.66,0.22c0.17,0.05,0.84,0,1,0.01     c0.21,0,0.4,0.15,0.59,0.23c0.24,0.1,0.41,0.32,0.64,0.44c0.17,0.09,0.23,0.32,0.3,0.48c0.07,0.16,0.19,0.19,0.35,0.23     c0.19,0.05,0.33,0.16,0.51,0.24c0.19,0.08,0.4,0.11,0.59,0.18c0.2,0.07,0.49-0.09,0.71-0.1c0.24,0,0.44-0.01,0.6,0.19     c0.14,0.17,0.26,0.34,0.27,0.56c0,0.1-0.07,0.22-0.06,0.33c0.01,0.15,0.08,0.21,0.22,0.27c0.16,0.06,0.12,0.05,0.32-0.01     c0.23-0.06,0.45-0.13,0.62-0.04c0.14,0.09,0.23,0.24,0.34,0.36c0.23,0.24,0.56,0.33,0.8,0.55c0.27,0.24,0.54,0.5,0.82,0.72     c0.49,0.38,0.89,0.98,1.08,1.56c0.04,0.14,0.07,0.28,0.1,0.43c0.03,0.13,0.03,0.24-0.05,0.35c-0.06,0.08,0,0.16,0.04,0.24     c0.06,0.11,0.13,0.38,0.17,0.35c0.06-0.04,0.24,0.23,0.26,0.34c0.02,0.13-0.03,0.31,0.06,0.42c0,0,0.03,0.03,0.03,0.03     c1.14-0.1,2.27-0.2,3.41-0.3c1.14-0.1,2.27-0.2,3.4-0.3c0.45-0.04,0.91-0.08,1.36-0.12c0.19-0.02,0.51,0.02,0.68-0.06     c0.04-0.02,0.06-0.09,0.11-0.12c0.12-0.06,0.32,0.02,0.45,0.05c0.23,0.05,0.17-0.25,0.24-0.36c0.12-0.18,0.25-0.19,0.23-0.44     c-0.01-0.15-0.06-0.4-0.2-0.49c-0.18-0.11-0.53-0.01-0.67-0.19c-0.08-0.1-0.01-0.28,0-0.39c0.02-0.17,0.04-0.4-0.02-0.56     c-0.03-0.07-0.08-0.13-0.09-0.2c-0.01-0.08,0.04-0.15,0.03-0.23c-0.01-0.04-0.07-0.09-0.08-0.13c-0.01-0.03,0.2-0.04,0.22-0.04     c0.24-0.02,0.25-0.35,0.37-0.49c0.1-0.1,0.11-0.15,0.14-0.29c0.05-0.25,0.16-0.63,0.1-0.88c-0.02-0.1-0.05-0.12-0.03-0.23     c0.01-0.08,0.08-0.17,0.07-0.26c-0.01-0.08-0.1-0.15-0.1-0.23c0.01-0.1,0.15-0.15,0.22-0.21c0.13-0.11,0.14-0.24,0.19-0.4     c0.06-0.16,0.23-0.19,0.37-0.27c0.19-0.11,0.34-0.26,0.49-0.42C58.91,54.34,59.02,54.24,59,54.12z"/>
		</g>
	</g>
</g>
<g id="Layer_3" class="st1">
	<g class="st2">
		<g>
			<path class="st6" d="M52.63,29.37c-0.01-0.01-0.02-0.01-0.02-0.02C52.62,29.36,52.63,29.36,52.63,29.37     c0.6,0.44,0.99,1.15,0.99,1.96v1.57c0,0.74-1.07,3.06-2.26,4.99c-0.56,0.91-1.45,2.35-3.33,3.4c-0.01,0.01-0.03,0.02-0.04,0.03     c-0.05,0.03-0.11,0.05-0.16,0.08c-0.03,0.02-0.06,0.03-0.09,0.05C51.11,38.91,50.99,29.43,52.63,29.37z M52.87,44.59     c0.74,0,1-0.38,1.16-0.6l0.16-0.23c-0.06-1.65-0.3-4.55-0.64-6.89c-0.3,0.57-0.61,1.13-0.9,1.59c-0.36,0.59-0.86,1.39-1.63,2.2     c0.1,1.09,0.12,2.47,0.11,3.94H52.87z M54.92,45.06c-0.4,0.39-1,0.87-2.06,0.87H51.1c-0.11,4.16-0.46,8.61-0.46,9.38H50     c-0.03-1.87-0.22-8.79-0.65-13.27c-1.23,0.83-2.86,1.52-5.09,1.8v0.17c0,0.68-0.55,1.22-1.22,1.22h-2.14     c-0.67,0-1.22-0.55-1.22-1.22v-0.17c-2.15-0.28-3.76-0.95-4.97-1.75c-0.43,4.48-0.62,11.34-0.65,13.21h-0.69     c0-0.77-0.34-5.22-0.44-9.38h-1.72c-1.12,0-1.73-0.54-2.11-0.92c-0.58,1.02-1.06,2.67-1.06,4.3v1.89c0,1.62,0.93,3.9,2.9,4.07     c0.29,0.96,1.04,2.01,2.36,2.01h16.83c1.31,0,2.3-1.04,2.77-1.99c2.08-0.06,3.06-2.43,3.06-4.09v-1.89     C55.96,47.71,55.5,46.08,54.92,45.06z M31.21,44.59h1.69c-0.01-1.42,0.02-2.76,0.11-3.84c-0.83-0.85-1.36-1.69-1.71-2.25     c-0.27-0.45-0.56-0.95-0.83-1.46c-0.32,2.3-0.56,5.07-0.62,6.69l0.15,0.21C30.2,44.21,30.47,44.59,31.21,44.59z M32.69,37.89     c-1.19-1.93-2.26-4.25-2.26-4.99v-1.57c0-0.8,0.39-1.52,0.98-1.96c0.01-0.01,0.02,0,0.03-0.01c-0.01,0.01-0.02,0.01-0.02,0.02     c1.65,0.05,1.52,9.55,4.89,12.08c-1.74-1.61-1.95-9.63-2.12-10.96c-0.13-0.99-0.6-1.43-1.3-1.62h3.22     c1.44-1.37,3.67-2.18,6.08-2.18c2.39,0,4.65,0.81,6.09,2.18h2.9c-0.7,0.19-1.17,0.62-1.3,1.62c-0.18,1.32-0.39,9.31-2.12,10.94     c-0.91,0.47-2.07,0.83-3.5,1.03v-0.98c0-0.68-0.55-1.22-1.22-1.22h-2.14c-0.67,0-1.22,0.55-1.22,1.22v0.98     c-1.57-0.22-2.79-0.66-3.73-1.2c0,0-0.01-0.02-0.01-0.03C34.1,40.19,33.24,38.78,32.69,37.89z M38.17,28.88h8     c-1.13-0.6-2.52-0.95-3.99-0.95C40.69,27.93,39.29,28.27,38.17,28.88z"/>
		</g>
		<g>
			<path class="st5" d="M50.63,27.37c-0.01-0.01-0.02-0.01-0.02-0.02C50.62,27.36,50.63,27.36,50.63,27.37     c0.6,0.44,0.99,1.15,0.99,1.96v1.57c0,0.74-1.07,3.06-2.26,4.99c-0.56,0.91-1.45,2.35-3.33,3.4c-0.01,0.01-0.03,0.02-0.04,0.03     c-0.05,0.03-0.11,0.05-0.16,0.08c-0.03,0.02-0.06,0.03-0.09,0.05C49.11,36.91,48.99,27.43,50.63,27.37z M50.87,42.59     c0.74,0,1-0.38,1.16-0.6l0.16-0.23c-0.06-1.65-0.3-4.55-0.64-6.89c-0.3,0.57-0.61,1.13-0.9,1.59c-0.36,0.59-0.86,1.39-1.63,2.2     c0.1,1.09,0.12,2.47,0.11,3.94H50.87z M52.92,43.06c-0.4,0.39-1,0.87-2.06,0.87H49.1c-0.11,4.16-0.46,8.61-0.46,9.38H48     c-0.03-1.87-0.22-8.79-0.65-13.27c-1.23,0.83-2.86,1.52-5.09,1.8v0.17c0,0.68-0.55,1.22-1.22,1.22h-2.14     c-0.67,0-1.22-0.55-1.22-1.22v-0.17c-2.15-0.28-3.76-0.95-4.97-1.75c-0.43,4.48-0.62,11.34-0.65,13.21h-0.69     c0-0.77-0.34-5.22-0.44-9.38h-1.72c-1.12,0-1.73-0.54-2.11-0.92c-0.58,1.02-1.06,2.67-1.06,4.3v1.89c0,1.62,0.93,3.9,2.9,4.07     c0.29,0.96,1.04,2.01,2.36,2.01h16.83c1.31,0,2.3-1.04,2.77-1.99c2.08-0.06,3.06-2.43,3.06-4.09v-1.89     C53.96,45.71,53.5,44.08,52.92,43.06z M29.21,42.59h1.69c-0.01-1.42,0.02-2.76,0.11-3.84c-0.83-0.85-1.36-1.69-1.71-2.25     c-0.27-0.45-0.56-0.95-0.83-1.46c-0.32,2.3-0.56,5.07-0.62,6.69l0.15,0.21C28.2,42.21,28.47,42.59,29.21,42.59z M30.69,35.89     c-1.19-1.93-2.26-4.25-2.26-4.99v-1.57c0-0.8,0.39-1.52,0.98-1.96c0.01-0.01,0.02,0,0.03-0.01c-0.01,0.01-0.02,0.01-0.02,0.02     c1.65,0.05,1.52,9.55,4.89,12.08c-1.74-1.61-1.95-9.63-2.12-10.96c-0.13-0.99-0.6-1.43-1.3-1.62h3.22     c1.44-1.37,3.67-2.18,6.08-2.18c2.39,0,4.65,0.81,6.09,2.18h2.9c-0.7,0.19-1.17,0.62-1.3,1.62c-0.18,1.32-0.39,9.31-2.12,10.94     c-0.91,0.47-2.07,0.83-3.5,1.03v-0.98c0-0.68-0.55-1.22-1.22-1.22h-2.14c-0.67,0-1.22,0.55-1.22,1.22v0.98     c-1.57-0.22-2.79-0.66-3.73-1.2c0,0-0.01-0.02-0.01-0.03C32.1,38.19,31.24,36.78,30.69,35.89z M36.17,26.88h8     c-1.13-0.6-2.52-0.95-3.99-0.95C38.69,25.93,37.29,26.27,36.17,26.88z"/>
		</g>
	</g>
</g>
<g id="Universities" class="st1">
	<g class="st2">
		<g>
			<path class="st6" d="M49.18,38.62c0.12,0.72,0.01,1.42-0.2,2.08c-0.32,1-0.68,1.41-1.78,1.07c0,1.88-0.59,2.5-0.94,2.8v0     c-0.43,0.33-0.43,0.33-0.68,0.49c-1.1,0.73-1.51,1.85-3.63,1.85c-2.12,0-2.86-1.23-3.63-1.85c-0.21-0.17-0.22-0.16-0.64-0.47     l0.01-0.01c-0.33-0.3-0.99-0.87-0.99-2.8c-1.1,0.34-1.46-0.07-1.78-1.07c-0.21-0.66-0.33-1.36-0.21-2.08     c0.06-0.36,0.17-0.58,0.36-0.76c0.17-0.2,0.25-0.14,0.41-0.15c-0.31-1.24-0.43-2.51-0.25-3.66c2.48,0.13,3.73,0.68,4.75,1.14     c0.64,0.29,1.15,0.52,1.8,0.55l0.16,0l0,0l0.15,0c0.74-0.03,1.3-0.28,1.95-0.58c0.92-0.42,2.18-0.99,4.63-1.12     c0.17,1.16,0.06,2.43-0.24,3.67c0.13,0.01,0.28,0.09,0.41,0.15C49.01,38.04,49.12,38.26,49.18,38.62z M53.55,29.47     c-0.32-0.16-10.62-4.14-11.56-4.27l0-0.01c0,0-0.03,0-0.03,0.01c-0.01,0-0.03-0.01-0.03-0.01l0,0.01     c-0.57,0.08-4.14,1.41-6.93,2.47c-0.07-0.1-0.23-0.28-0.39-0.25l-1.73,0.28c-0.26,0.02-0.74,0.25-0.74,0.94v0.13     c-0.31,0.12-0.52,0.21-0.56,0.23c-0.32,0.16-0.7,0.35-0.7,0.65c0,0.3,0.46,0.62,0.73,0.73c0.05,0.02,0.25,0.07,0.53,0.14v3.17     c-0.36,0.14-0.61,0.48-0.61,0.87c0,0.36,0.22,0.66,0.52,0.82c-0.42,1.65-0.71,5.12-0.71,7.15c0,0.35,2.34,0.37,2.34,0     c0-2.02-0.29-5.5-0.7-7.15c0.31-0.16,0.52-0.46,0.52-0.82c0-0.39-0.25-0.73-0.61-0.87v-2.98c1.02,0.24,2.32,0.55,2.78,0.65     l-0.38,1.43c2.72,0.15,4.14,0.78,5.19,1.25c0.53,0.24,0.89,0.4,1.27,0.43l0.09,0l0.25,0.01c0.45-0.01,0.84-0.19,1.42-0.46     c1.03-0.47,2.42-1.09,5.13-1.23l-0.38-1.4c0.96-0.08,5.03-0.44,5.27-0.53c0.27-0.11,0.73-0.43,0.73-0.73     C54.25,29.83,53.87,29.64,53.55,29.47z M56.03,52.62c-0.75-0.89-2.3-1.64-4.55-2.43c-1.85-0.66-3.2-1.33-3.93-2     c-0.06-0.05-0.13-0.13-0.19-0.2c-0.06,1.15-0.39,2.27-1.01,3.35l-0.26,0.45l-0.28-0.44c-1.09-1.7-2.37-2.37-3.26-2.63h-1.14     c-0.89,0.27-2.18,0.94-3.26,2.62l-0.28,0.44l-0.26-0.45c-0.61-1.08-0.93-2.21-0.98-3.37c-0.07,0.08-0.15,0.17-0.22,0.23     c-0.73,0.66-2.08,1.34-3.93,2c-2.24,0.8-3.8,1.54-4.54,2.43c0,0-1.02,1.74-1.02,3.85c0,0.49,0.14,0.31,0.31,0.31h29.56     c0.17,0,0.31-0.1,0.31-0.31C57.09,54.35,56.03,52.62,56.03,52.62z"/>
		</g>
		<g>
			<path class="st5" d="M47.18,36.62c0.12,0.72,0.01,1.42-0.2,2.08c-0.32,1-0.68,1.41-1.78,1.07c0,1.88-0.59,2.5-0.94,2.8v0     c-0.43,0.33-0.43,0.33-0.68,0.49c-1.1,0.73-1.51,1.85-3.63,1.85c-2.12,0-2.86-1.23-3.63-1.85c-0.21-0.17-0.22-0.16-0.64-0.47     l0.01-0.01c-0.33-0.3-0.99-0.87-0.99-2.8c-1.1,0.34-1.46-0.07-1.78-1.07c-0.21-0.66-0.33-1.36-0.21-2.08     c0.06-0.36,0.17-0.58,0.36-0.76c0.17-0.2,0.25-0.14,0.41-0.15c-0.31-1.24-0.43-2.51-0.25-3.66c2.48,0.13,3.73,0.68,4.75,1.14     c0.64,0.29,1.15,0.52,1.8,0.55l0.16,0l0,0l0.15,0c0.74-0.03,1.3-0.28,1.95-0.58c0.92-0.42,2.18-0.99,4.63-1.12     c0.17,1.16,0.06,2.43-0.24,3.67c0.13,0.01,0.28,0.09,0.41,0.15C47.01,36.04,47.12,36.26,47.18,36.62z M51.55,27.47     c-0.32-0.16-10.62-4.14-11.56-4.27l0-0.01c0,0-0.03,0-0.03,0.01c-0.01,0-0.03-0.01-0.03-0.01l0,0.01     c-0.57,0.08-4.14,1.41-6.93,2.47c-0.07-0.1-0.23-0.28-0.39-0.25l-1.73,0.28c-0.26,0.02-0.74,0.25-0.74,0.94v0.13     c-0.31,0.12-0.52,0.21-0.56,0.23c-0.32,0.16-0.7,0.35-0.7,0.65c0,0.3,0.46,0.62,0.73,0.73c0.05,0.02,0.25,0.07,0.53,0.14v3.17     c-0.36,0.14-0.61,0.48-0.61,0.87c0,0.36,0.22,0.66,0.52,0.82c-0.42,1.65-0.71,5.12-0.71,7.15c0,0.35,2.34,0.37,2.34,0     c0-2.02-0.29-5.5-0.7-7.15c0.31-0.16,0.52-0.46,0.52-0.82c0-0.39-0.25-0.73-0.61-0.87v-2.98c1.02,0.24,2.32,0.55,2.78,0.65     l-0.38,1.43c2.72,0.15,4.14,0.78,5.19,1.25c0.53,0.24,0.89,0.4,1.27,0.43l0.09,0l0.25,0.01c0.45-0.01,0.84-0.19,1.42-0.46     c1.03-0.47,2.42-1.09,5.13-1.23l-0.38-1.4c0.96-0.08,5.03-0.44,5.27-0.53c0.27-0.11,0.73-0.43,0.73-0.73     C52.25,27.83,51.87,27.64,51.55,27.47z M54.03,50.62c-0.75-0.89-2.3-1.64-4.55-2.43c-1.85-0.66-3.2-1.33-3.93-2     c-0.06-0.05-0.13-0.13-0.19-0.2c-0.06,1.15-0.39,2.27-1.01,3.35l-0.26,0.45l-0.28-0.44c-1.09-1.7-2.37-2.37-3.26-2.63h-1.14     c-0.89,0.27-2.18,0.94-3.26,2.62l-0.28,0.44l-0.26-0.45c-0.61-1.08-0.93-2.21-0.98-3.37c-0.07,0.08-0.15,0.17-0.22,0.23     c-0.73,0.66-2.08,1.34-3.93,2c-2.24,0.8-3.8,1.54-4.54,2.43c0,0-1.02,1.74-1.02,3.85c0,0.49,0.14,0.31,0.31,0.31h29.56     c0.17,0,0.31-0.1,0.31-0.31C55.09,52.35,54.03,50.62,54.03,50.62z"/>
		</g>
	</g>
</g>
</svg>