<svg xmlns="http://www.w3.org/2000/svg" shape-rendering="geometricPrecision" text-rendering="geometricPrecision" image-rendering="optimizeQuality" fill-rule="evenodd" clip-rule="evenodd" viewBox="0 0 512 512"><path fill="#00674F" d="M256 0c140.803 0 256 115.197 256 256S396.803 512 256 512 0 396.803 0 256 115.197 0 256 0z"/><path fill="#CF4646" fill-rule="nonzero" d="M203.726 215.29c-4.231.179-7.239 1.585-8.973 4.223-4.71 7.06 1.718 14.037 6.179 18.951 12.656 13.89 43.674 47.273 49.919 54.621 4.734 5.234 11.473 5.234 16.207 0 6.451-7.537 39.03-42.441 51.061-55.952 4.174-4.7 9.336-11.111 4.988-17.62-1.774-2.638-4.75-4.044-8.982-4.223h-25.691v-63.641c0-6.78-5.565-12.347-12.348-12.347h-34.31c-6.786 0-12.348 5.559-12.348 12.347v63.641h-25.702zm-82.609 70.286c-3.933-16.263 20.695-22.233 24.625-5.962 1.644 6.787 3.055 13.609 4.412 20.456 2.535 12.8 4.41 20.825 9.138 24.824 5.003 4.235 14.468 5.696 32.605 5.696H329.2c16.745 0 25.481-1.601 30.078-5.756 4.425-4 6.158-11.833 8.404-23.855l.048-.237c1.32-7.07 2.688-14.137 4.387-21.128 3.928-16.256 28.532-10.309 24.625 5.934l-.006.025c-1.604 6.649-2.878 13.327-4.128 20.049l-.004.025c-3.306 17.711-6.015 29.862-15.094 38.395-8.944 8.409-22.956 11.965-48.31 11.965H191.899c-26.511 0-41.075-3.19-50.446-11.489-9.601-8.504-12.514-20.85-16.223-39.585-1.282-6.473-2.559-12.943-4.113-19.357z"/><path fill="#fff" fill-rule="nonzero" d="M197.87 209.434c-4.232.179-7.239 1.584-8.973 4.223-4.71 7.06 1.718 14.036 6.179 18.951 12.656 13.89 43.674 47.273 49.919 54.62 4.734 5.235 11.473 5.235 16.207 0 6.451-7.536 39.03-42.44 51.06-55.951 4.175-4.701 9.337-11.112 4.989-17.62-1.775-2.639-4.75-4.044-8.982-4.223h-25.691v-63.642c0-6.781-5.565-12.348-12.348-12.348h-34.31c-6.786 0-12.349 5.56-12.349 12.348v63.642H197.87zm-82.609 70.286c-3.933-16.263 20.695-22.234 24.625-5.962 1.644 6.787 3.055 13.609 4.412 20.456 2.535 12.8 4.41 20.824 9.138 24.824 5.003 4.235 14.467 5.696 32.605 5.696h137.303c16.744 0 25.481-1.601 30.078-5.757 4.424-3.999 6.158-11.832 8.403-23.854l.049-.237c1.32-7.07 2.688-14.137 4.386-21.128 3.929-16.257 28.533-10.309 24.626 5.934l-.006.025c-1.604 6.649-2.878 13.327-4.128 20.048l-.004.025c-3.306 17.711-6.016 29.863-15.095 38.396-8.943 8.408-22.955 11.965-48.309 11.965H186.042c-26.51 0-41.075-3.19-50.445-11.49-9.601-8.503-12.514-20.849-16.223-39.584-1.282-6.473-2.559-12.943-4.113-19.357z"/></svg>