<svg xmlns="http://www.w3.org/2000/svg" width="24" height="24" viewBox="0 0 24 24" fill="none">
  <path fill-rule="evenodd" clip-rule="evenodd" d="M18 7H16V6C16 4.34315 14.6569 3 13 3H11C9.34315 3 8 4.34315 8 6V7H6C4.34315 7 3 8.34315 3 10V18C3 19.6569 4.34315 21 6 21H18C19.6569 21 21 19.6569 21 18V10C21 8.34315 19.6569 7 18 7ZM14 7H10V6C10 5.44772 10.4477 5 11 5H13C13.5523 5 14 5.44772 14 6V7Z" fill="#52c4c4"/>
  <path d="M12 11V17" stroke="white" stroke-width="2" stroke-linecap="round"/>
  <path d="M15 14L9 14" stroke="white" stroke-width="2" stroke-linecap="round"/>
</svg>